<svg xmlns="http://www.w3.org/2000/svg" viewBox="0 0 24 24" width="24" height="24">
  <!-- 大脑形状 -->
  <path d="M12 2C7.58 2 4 5.58 4 10c0 2.03 0.76 3.87 2 5.28V16c0 1.1 0.9 2 2 2h8c1.1 0 2-0.9 2-2v-0.72c1.24-1.41 2-3.25 2-5.28 0-4.42-3.58-8-8-8z" fill="#5D87FF" />
  
  <!-- 神经网络连接线 -->
  <path d="M9 10.5l1.5 1.5m3-1.5l-1.5 1.5m-3 2l1.5 1.5m3-1.5l-1.5 1.5" stroke="#FFFFFF" stroke-width="1.2" stroke-linecap="round" />
  <path d="M7.5 8.5l2.5 2.5m4-2.5l-2.5 2.5" stroke="#FFFFFF" stroke-width="1.2" stroke-linecap="round" />
  
  <!-- 节点 -->
  <circle cx="7.5" cy="8.5" r="1" fill="#FFFFFF" />
  <circle cx="16.5" cy="8.5" r="1" fill="#FFFFFF" />
  <circle cx="9" cy="10.5" r="1" fill="#FFFFFF" />
  <circle cx="12" cy="12" r="1" fill="#FFFFFF" />
  <circle cx="15" cy="10.5" r="1" fill="#FFFFFF" />
  <circle cx="7.5" cy="14" r="1" fill="#FFFFFF" />
  <circle cx="16.5" cy="14" r="1" fill="#FFFFFF" />
  <circle cx="9" cy="16" r="1" fill="#FFFFFF" />
  <circle cx="15" cy="16" r="1" fill="#FFFFFF" />
  
  <!-- 底部文字 -->
  <text x="12" y="21" font-family="Arial, sans-serif" font-size="3" font-weight="bold" text-anchor="middle" fill="#5D87FF">AI</text>
</svg>