<svg xmlns="http://www.w3.org/2000/svg" fill="#ffffff" viewBox="0 0 1024 1024" width="32" height="32">
<path d="M614 117.8c0 3.6-0.2 7.2-0.6 10.8-0.4 3.6-0.8 7.2-1.6 10.6-0.8 3.6-1.6 7-2.6 10.4-1 3.4-2.2 6.8-3.6 10.2-1.4 3.4-3 6.6-4.6 9.8-1.6 3.2-3.6 6.2-5.6 9.2-2 3-4.2 5.8-6.4 8.6s-4.8 5.4-7.2 8c-2.6 2.6-5.2 5-8 7.2s-5.6 4.4-8.6 6.4-6 3.8-9.2 5.6c-3.2 1.6-6.4 3.2-9.8 4.6-3.4 1.4-6.8 2.6-10.2 3.6-3.4 1-7 2-10.4 2.6-3.6 0.8-7 1.2-10.6 1.6a97.726 97.726 0 0 1-21.6 0c-3.6-0.4-7.2-0.8-10.6-1.6-3.6-0.8-7-1.6-10.4-2.6-3.4-1-6.8-2.2-10.2-3.6-3.4-1.4-6.6-3-9.8-4.6-3.2-1.6-6.2-3.6-9.2-5.6-3-2-5.8-4.2-8.6-6.4s-5.4-4.6-8-7.2c-2.6-2.6-5-5.2-7.2-8s-4.4-5.6-6.4-8.6-3.8-6-5.6-9.2c-1.6-3.2-3.2-6.4-4.6-9.8-1.4-3.4-2.6-6.8-3.6-10.2-1-3.4-2-7-2.6-10.4s-1.2-7-1.6-10.6a97.726 97.726 0 0 1 0-21.6c0.4-3.6 0.8-7.2 1.6-10.6s1.6-7 2.6-10.4c1-3.4 2.2-6.8 3.6-10.2 1.4-3.4 3-6.6 4.6-9.8 1.6-3.2 3.6-6.2 5.6-9.2 2-3 4.2-5.8 6.4-8.6s4.8-5.4 7.2-8c2.6-2.6 5.2-5 8-7.2s5.6-4.4 8.6-6.4 6-3.8 9.2-5.6c3.2-1.6 6.4-3.2 9.8-4.6 3.4-1.4 6.8-2.6 10.2-3.6 3.4-1 7-2 10.4-2.6 3.6-0.8 7-1.2 10.6-1.6a97.726 97.726 0 0 1 21.6 0c3.6 0.4 7.2 0.8 10.6 1.6 3.6 0.8 7 1.6 10.4 2.6 3.4 1 6.8 2.2 10.2 3.6 3.4 1.4 6.6 3 9.8 4.6 3.2 1.6 6.2 3.6 9.2 5.6 3 2 5.8 4.2 8.6 6.4s5.4 4.6 8 7.2c2.6 2.6 5 5.2 7.2 8s4.4 5.6 6.4 8.6 3.8 6 5.6 9.2c1.6 3.2 3.2 6.4 4.6 9.8 1.4 3.4 2.6 6.8 3.6 10.2 1 3.4 2 7 2.6 10.4 0.8 3.6 1.2 7 1.6 10.6 0.4 3.6 0.6 7.2 0.6 10.8zM598.2 259h-188.6c-2 0-4.2 0-6.2 0.2s-4.2 0.2-6.2 0.4-4 0.4-6.2 0.8c-2 0.4-4 0.6-6 1s-4 0.8-6 1.4-4 1-6 1.6c-2 0.6-4 1.2-5.8 2-2 0.6-3.8 1.4-5.8 2.2-1.8 0.8-3.8 1.6-5.6 2.6-1.8 0.8-3.6 1.8-5.6 2.8l-5.4 3c-1.8 1-3.4 2.2-5.2 3.2-1.8 1.2-3.4 2.4-5 3.6-1.6 1.2-3.2 2.4-4.8 3.8-1.6 1.4-3.2 2.6-4.6 4-1.6 1.4-3 2.8-4.4 4.2-1.4 1.4-2.8 3-4.2 4.4-1.4 1.6-2.8 3-4 4.6-1.4 1.6-2.6 3.2-3.8 4.8-1.2 1.6-2.4 3.4-3.6 5-1.2 1.8-2.2 3.4-3.4 5.2l-3 5.4c-1 1.8-1.8 3.6-2.8 5.4-0.8 1.8-1.8 3.8-2.6 5.6s-1.6 3.8-2.2 5.8c-0.6 2-1.4 3.8-2 5.8-0.6 2-1.2 4-1.6 6-0.6 2-1 4-1.4 6-0.4 2-0.8 4-1 6-0.4 2-0.6 4-0.8 6.2-0.2 2-0.4 4-0.4 6.2-0.2 2-0.2 4.2-0.2 6.2v210.8c0 21.2 16.6 39.4 37.8 40.2h4c1.4 0 2.6-0.2 4-0.4 1.2-0.2 2.6-0.4 3.8-0.8 1.2-0.4 2.6-0.8 3.8-1.2 1.2-0.4 2.4-1 3.6-1.6 1.2-0.6 2.4-1.2 3.4-2 1.2-0.8 2.2-1.4 3.2-2.2 1-0.8 2-1.6 3-2.6l2.8-2.8c0.8-1 1.6-2 2.4-3.2 0.8-1 1.4-2.2 2-3.4l1.8-3.6c0.6-1.2 1-2.4 1.4-3.6 0.4-1.2 0.8-2.6 1-3.8 0.2-1.2 0.4-2.6 0.6-3.8 0.2-1.4 0.2-2.6 0.2-4v-195.6c0-1 0-2 0.2-3s0.4-2 0.8-2.8c0.4-1 0.8-1.8 1.4-2.6l1.8-2.4c0.6-0.8 1.4-1.4 2.2-2 0.8-0.6 1.6-1.2 2.6-1.6 1-0.4 1.8-0.8 2.8-1l3-0.6c1 0 2.2 0 3.2 0.2s2.2 0.4 3.2 0.8 2 0.8 3 1.4c1 0.6 1.8 1.2 2.6 2s1.4 1.6 2.2 2.4c0.6 0.8 1.2 1.8 1.6 2.8 0.4 1 0.8 2 1 3 0.2 1 0.4 2.2 0.4 3.2v566.6c0 1.4 0 3 0.2 4.4 0.2 1.4 0.4 3 0.6 4.4 0.2 1.4 0.6 2.8 1 4.2 0.4 1.4 1 2.8 1.4 4.2 0.6 1.4 1.2 2.6 1.8 4s1.4 2.6 2.2 3.8c0.8 1.2 1.8 2.4 2.6 3.6 1 1.2 2 2.2 3 3.2s2.2 2 3.2 3 2.4 1.8 3.6 2.6c1.2 0.8 2.4 1.6 3.8 2.2 1.4 0.6 2.6 1.4 4 1.8 1.4 0.6 2.8 1 4.2 1.4 1.4 0.4 2.8 0.8 4.4 1 1.4 0.2 3 0.6 4.4 0.6 1.4 0.2 3 0.2 4.4 0.2 1.4 0 3 0 4.4-0.2 1.4-0.2 3-0.4 4.4-0.6 1.4-0.2 2.8-0.6 4.4-1 1.4-0.4 2.8-1 4.2-1.4 1.4-0.6 2.8-1.2 4-1.8 1.4-0.6 2.6-1.4 3.8-2.2 1.2-0.8 2.4-1.6 3.6-2.6 1.2-1 2.2-2 3.2-3s2-2.2 3-3.2c1-1.2 1.8-2.4 2.6-3.6 0.8-1.2 1.6-2.4 2.2-3.8 0.6-1.4 1.4-2.6 1.8-4 0.6-1.4 1-2.8 1.4-4.2 0.4-1.4 0.8-2.8 1-4.2 0.2-1.4 0.6-3 0.6-4.4 0.2-1.4 0.2-3 0.2-4.4v-280c0-1.2 0-2.6 0.2-3.8 0.2-1.2 0.6-2.4 1-3.6 0.4-1.2 1-2.2 1.6-3.4 0.6-1 1.4-2 2.2-3 0.8-1 1.8-1.8 2.8-2.6 1-0.8 2-1.4 3.2-2 1.2-0.6 2.2-1 3.6-1.4s2.4-0.6 3.6-0.6c1.4 0 2.6 0 4 0.2s2.6 0.6 4 1c1.2 0.4 2.4 1 3.6 1.8 1.2 0.8 2.2 1.6 3.2 2.4 1 1 1.8 2 2.6 3 0.8 1.2 1.4 2.2 2 3.6 0.6 1.2 1 2.6 1.2 3.8s0.4 2.6 0.4 4v280.4c0 1.4 0 3 0.2 4.4 0.2 1.4 0.4 3 0.6 4.4 0.2 1.4 0.6 2.8 1 4.2 0.4 1.4 1 2.8 1.4 4.2 0.6 1.4 1.2 2.6 1.8 4 0.6 1.4 1.4 2.6 2.2 3.8 0.8 1.2 1.8 2.4 2.6 3.6 1 1.2 2 2.2 3 3.2s2.2 2 3.2 3c1.2 1 2.4 1.8 3.6 2.6 1.2 0.8 2.4 1.6 3.8 2.2 1.4 0.6 2.6 1.4 4 1.8 1.4 0.6 2.8 1 4.2 1.4 1.4 0.4 2.8 0.8 4.4 1 1.4 0.2 3 0.6 4.4 0.6 1.4 0.2 3 0.2 4.4 0.2s3 0 4.4-0.2c1.4-0.2 3-0.4 4.4-0.6 1.4-0.2 2.8-0.6 4.4-1 1.4-0.4 2.8-1 4.2-1.4 1.4-0.6 2.8-1.2 4-1.8 1.4-0.6 2.6-1.4 3.8-2.2 1.2-0.8 2.4-1.6 3.6-2.6 1.2-1 2.2-2 3.2-3s2-2.2 3-3.2c1-1.2 1.8-2.4 2.6-3.6 0.8-1.2 1.6-2.4 2.2-3.8 0.6-1.4 1.4-2.6 1.8-4 0.6-1.4 1-2.8 1.4-4.2 0.4-1.4 0.8-2.8 1-4.2 0.2-1.4 0.6-3 0.6-4.4 0.2-1.4 0.2-3 0.2-4.4V400.8c0-1 0-2 0.2-3s0.4-2 0.8-2.8c0.4-1 0.8-1.8 1.4-2.6l1.8-2.4c0.6-0.8 1.4-1.4 2.2-2 0.8-0.6 1.6-1.2 2.6-1.6 1-0.4 1.8-0.8 2.8-1l3-0.6c1 0 2.2 0 3.2 0.2s2.2 0.4 3.2 0.8 2 0.8 3 1.4c1 0.6 1.8 1.2 2.6 2s1.4 1.6 2.2 2.4 1.2 1.8 1.6 2.8c0.4 1 0.8 2 1 3 0.2 1 0.4 2.2 0.4 3.2v195.2c0 21.2 16.6 39.4 37.8 40.2h4c1.4 0 2.6-0.2 4-0.4s2.6-0.4 3.8-0.8c1.2-0.4 2.6-0.8 3.8-1.2 1.2-0.4 2.4-1 3.6-1.6 1.2-0.6 2.4-1.2 3.4-2 1.2-0.8 2.2-1.4 3.2-2.2 1-0.8 2-1.6 3-2.6l2.8-2.8c0.8-1 1.6-2 2.4-3.2 0.8-1 1.4-2.2 2-3.4l1.8-3.6c0.6-1.2 1-2.4 1.4-3.8 0.4-1.2 0.8-2.6 1-3.8 0.2-1.2 0.4-2.6 0.6-3.8 0.2-1.4 0.2-2.6 0.2-4V384.6c0-2 0-4.2-0.2-6.2s-0.2-4-0.4-6.2c-0.2-2-0.4-4-0.8-6.2-0.4-2-0.6-4-1-6s-0.8-4-1.4-6c-0.6-2-1-4-1.6-6-0.6-2-1.2-4-2-5.8-0.6-2-1.4-3.8-2.2-5.8s-1.6-3.8-2.6-5.6c-0.8-1.8-1.8-3.6-2.8-5.4l-3-5.4c-1-1.8-2.2-3.4-3.4-5.2-1.2-1.8-2.4-3.4-3.6-5-1.2-1.6-2.4-3.2-3.8-4.8-1.4-1.6-2.6-3.2-4-4.6-1.4-1.6-2.8-3-4.2-4.4-1.4-1.4-3-2.8-4.4-4.2-1.6-1.4-3-2.8-4.6-4-1.6-1.4-3.2-2.6-4.8-3.8-1.6-1.2-3.4-2.4-5-3.6-1.8-1.2-3.4-2.2-5.2-3.2l-5.4-3c-1.8-1-3.6-1.8-5.6-2.8-1.8-0.8-3.8-1.8-5.6-2.6-1.8-0.8-3.8-1.6-5.8-2.2-2-0.6-3.8-1.4-5.8-2-2-0.6-4-1.2-6-1.6s-4-1-6-1.4c-2-0.4-4-0.8-6-1-2-0.4-4-0.6-6.2-0.8-2-0.2-4-0.4-6.2-0.4-1.8-0.4-4-0.4-6-0.4z" p-id="7157"></path>
</svg>